<?xml version="1.0" standalone="no"?>
<!DOCTYPE svg PUBLIC "-//W3C//DTD SVG 20010904//EN"
 "http://www.w3.org/TR/2001/REC-SVG-20010904/DTD/svg10.dtd">
<svg version="1.0" xmlns="http://www.w3.org/2000/svg"
 width="115.000000pt" height="159.000000pt" viewBox="0 0 115.000000 159.000000"
 preserveAspectRatio="xMidYMid meet">

<g transform="translate(0.000000,159.000000) scale(0.100000,-0.100000)"
fill="#000000" stroke="none">
<path d="M360 765 l0 -576 113 3 112 3 3 227 2 228 68 0 c181 0 248 78 259
300 9 195 -34 317 -129 364 -50 25 -58 26 -240 26 l-188 0 0 -575z m310 349
c11 -11 16 -41 18 -107 3 -82 1 -95 -18 -120 -15 -18 -31 -27 -51 -27 l-29 0
0 141 0 141 33 -7 c17 -4 39 -13 47 -21z"/>
</g>
</svg>
